G75*
%MOIN*%
%OFA0B0*%
%FSLAX25Y25*%
%IPPOS*%
%LPD*%
%AMOC8*
5,1,8,0,0,1.08239X$1,22.5*
%
%ADD10R,0.02756X0.07677*%
%ADD11R,0.10000X0.20000*%
%ADD12R,0.03937X0.02756*%
%ADD13R,0.02165X0.04724*%
%ADD14R,0.02756X0.03937*%
D10*
X0092200Y0027712D03*
X0097200Y0027712D03*
X0102200Y0027712D03*
X0107200Y0027712D03*
X0112200Y0027712D03*
X0117200Y0027712D03*
X0122200Y0027712D03*
X0127200Y0027712D03*
X0132200Y0027712D03*
X0137200Y0027712D03*
X0142200Y0027712D03*
X0147200Y0027712D03*
X0152200Y0027712D03*
X0157200Y0027712D03*
X0162200Y0027712D03*
X0167200Y0027712D03*
X0172200Y0027712D03*
X0177200Y0027712D03*
X0182200Y0027712D03*
X0187200Y0027712D03*
X0192200Y0027712D03*
X0192200Y0066688D03*
X0187200Y0066688D03*
X0182200Y0066688D03*
X0177200Y0066688D03*
X0172200Y0066688D03*
X0167200Y0066688D03*
X0162200Y0066688D03*
X0157200Y0066688D03*
X0152200Y0066688D03*
X0147200Y0066688D03*
X0142200Y0066688D03*
X0137200Y0066688D03*
X0132200Y0066688D03*
X0127200Y0066688D03*
X0122200Y0066688D03*
X0117200Y0066688D03*
X0112200Y0066688D03*
X0107200Y0066688D03*
X0102200Y0066688D03*
X0097200Y0066688D03*
X0092200Y0066688D03*
D11*
X0292200Y0037200D03*
D12*
X0092200Y0009444D03*
X0092200Y0014956D03*
X0117200Y0014956D03*
X0117200Y0009444D03*
X0192200Y0009444D03*
X0192200Y0014956D03*
X0292200Y0054444D03*
X0292200Y0059956D03*
D13*
X0275940Y0057318D03*
X0272200Y0057318D03*
X0268460Y0057318D03*
X0268460Y0047082D03*
X0275940Y0047082D03*
D14*
X0259956Y0047200D03*
X0254444Y0047200D03*
X0269444Y0037700D03*
X0274956Y0037700D03*
M02*
