%
M48
M72
T01C0.0157
T02C0.0354
%
T01
X001720Y000720
X003220Y000720
X004720Y000720
X006220Y000720
X007720Y000720
X008720Y000720
X009720Y000720
X011220Y000720
X012220Y000720
X013720Y000720
X015470Y000720
X017220Y000720
X018720Y000720
X020220Y000720
X021720Y000720
X023220Y000720
X024720Y000720
X026220Y000720
X027720Y000720
X029220Y000720
X030220Y001720
X030220Y003220
X030220Y004720
X027620Y005220
X026820Y005220
X024970Y004720
X025970Y004220
X025970Y003220
X020220Y004720
X023070Y006220
X023970Y006220
X019720Y006720
X019220Y007220
X015720Y006070
X011720Y006070
X009720Y005570
X009470Y006070
X008820Y006720
X009220Y007220
X011720Y007220
X006620Y005570
X011470Y003470
X013970Y003470
X022820Y008720
X021970Y009720
X020220Y009470
X020220Y009970
X020220Y010470
X025220Y009220
X030220Y006220
X000720Y006220
X000720Y004720
X000720Y003220
X000720Y001720
X000720Y007720
X000720Y009720
T02
X001220Y009220
X001220Y010220
X004220Y010220
X004220Y009220
X004220Y008220
X004220Y007220
X006720Y008220
X006720Y009220
X006720Y010220
X009720Y010220
X009720Y009220
X009720Y008220
X021220Y007220
X024220Y007220
X024220Y008220
X024220Y009220
X024220Y010220
X026720Y010220
X026720Y009220
X029720Y009220
X029720Y010220
X029720Y008220
X026720Y007220
X024220Y005220
X024220Y004220
X024220Y003220
X024220Y002220
X024220Y001220
X026720Y001220
X026720Y002220
X021220Y002220
X021220Y001220
X021220Y003220
X021220Y004220
X021220Y005220
X021220Y009220
X021220Y010220
X006720Y002220
X006720Y001220
X001220Y001220
X001220Y002220
M30
