%
M48
M72
T01C0.0157
T02C0.0354
%
T01
X001720Y000720
X003220Y000720
X004720Y000720
X006220Y000720
X007720Y000720
X009720Y000720
X010720Y000720
X012220Y000720
X013220Y000720
X014720Y000720
X016470Y000720
X018220Y000720
X019720Y000720
X021220Y000720
X022720Y000720
X024220Y000720
X025720Y000720
X027220Y000720
X028720Y000720
X030220Y000720
X031720Y000720
X031720Y002220
X031720Y003720
X031720Y005220
X028620Y005220
X027820Y005220
X025970Y004720
X027470Y004220
X027470Y003220
X021220Y004720
X024070Y006220
X024970Y006220
X020720Y006720
X020220Y007220
X016720Y006070
X012720Y006070
X012720Y007220
X010220Y007220
X009720Y006720
X009570Y005720
X006470Y005720
X000720Y006220
X000720Y007720
X000720Y009720
X000720Y004720
X000720Y003220
X000720Y001720
X012470Y003470
X014970Y003470
X023820Y008720
X022970Y009720
X021220Y009470
X021220Y009970
X021220Y010470
X026220Y009220
X031720Y006720
T02
X028220Y007220
X025220Y007220
X025220Y008220
X025220Y009220
X025220Y010220
X022220Y010220
X022220Y009220
X022220Y007220
X022220Y005220
X022220Y004220
X022220Y003220
X022220Y002220
X022220Y001220
X025220Y001220
X025220Y002220
X025220Y003220
X025220Y004220
X025220Y005220
X028220Y002220
X028220Y001220
X031220Y008220
X031220Y009220
X031220Y010220
X028220Y010220
X028220Y009220
X010220Y009220
X010220Y010220
X007220Y010220
X007220Y009220
X007220Y008220
X010220Y008220
X004220Y008220
X004220Y007220
X004220Y009220
X004220Y010220
X001220Y010220
X001220Y009220
X001220Y002220
X001220Y001220
X007220Y001220
X007220Y002220
M30
