G75*
%MOIN*%
%OFA0B0*%
%FSLAX25Y25*%
%IPPOS*%
%LPD*%
%AMOC8*
5,1,8,0,0,1.08239X$1,22.5*
%
%ADD10R,0.03356X0.08277*%
%ADD11OC8,0.07687*%
%ADD12R,0.10600X0.20600*%
%ADD13R,0.04537X0.03356*%
%ADD14R,0.02765X0.05324*%
%ADD15R,0.03356X0.04537*%
D10*
X0102200Y0027712D03*
X0107200Y0027712D03*
X0112200Y0027712D03*
X0117200Y0027712D03*
X0122200Y0027712D03*
X0127200Y0027712D03*
X0132200Y0027712D03*
X0137200Y0027712D03*
X0142200Y0027712D03*
X0147200Y0027712D03*
X0152200Y0027712D03*
X0157200Y0027712D03*
X0162200Y0027712D03*
X0167200Y0027712D03*
X0172200Y0027712D03*
X0177200Y0027712D03*
X0182200Y0027712D03*
X0187200Y0027712D03*
X0192200Y0027712D03*
X0197200Y0027712D03*
X0202200Y0027712D03*
X0202200Y0066688D03*
X0197200Y0066688D03*
X0192200Y0066688D03*
X0187200Y0066688D03*
X0182200Y0066688D03*
X0177200Y0066688D03*
X0172200Y0066688D03*
X0167200Y0066688D03*
X0162200Y0066688D03*
X0157200Y0066688D03*
X0152200Y0066688D03*
X0147200Y0066688D03*
X0142200Y0066688D03*
X0137200Y0066688D03*
X0132200Y0066688D03*
X0127200Y0066688D03*
X0122200Y0066688D03*
X0117200Y0066688D03*
X0112200Y0066688D03*
X0107200Y0066688D03*
X0102200Y0066688D03*
D11*
X0012200Y0012200D03*
X0012200Y0022200D03*
X0072200Y0022200D03*
X0072200Y0012200D03*
X0222200Y0012200D03*
X0222200Y0022200D03*
X0222200Y0032200D03*
X0222200Y0042200D03*
X0222200Y0052200D03*
X0252200Y0052200D03*
X0252200Y0042200D03*
X0252200Y0032200D03*
X0252200Y0022200D03*
X0252200Y0012200D03*
X0282200Y0012200D03*
X0282200Y0022200D03*
X0282200Y0072200D03*
X0252200Y0072200D03*
X0252200Y0082200D03*
X0252200Y0092200D03*
X0252200Y0102200D03*
X0222200Y0102200D03*
X0222200Y0092200D03*
X0222200Y0072200D03*
X0282200Y0092200D03*
X0282200Y0102200D03*
X0312200Y0102200D03*
X0312200Y0092200D03*
X0312200Y0082200D03*
X0102200Y0082200D03*
X0102200Y0092200D03*
X0102200Y0102200D03*
X0072200Y0102200D03*
X0072200Y0092200D03*
X0072200Y0082200D03*
X0042200Y0082200D03*
X0042200Y0072200D03*
X0042200Y0092200D03*
X0042200Y0102200D03*
X0012200Y0102200D03*
X0012200Y0092200D03*
D12*
X0307200Y0037200D03*
D13*
X0307200Y0054444D03*
X0307200Y0059956D03*
X0202200Y0014956D03*
X0202200Y0009444D03*
X0127200Y0009444D03*
X0127200Y0014956D03*
X0102200Y0014956D03*
X0102200Y0009444D03*
D14*
X0278460Y0047082D03*
X0285940Y0047082D03*
X0285940Y0057318D03*
X0282200Y0057318D03*
X0278460Y0057318D03*
D15*
X0269956Y0047200D03*
X0264444Y0047200D03*
X0279444Y0037700D03*
X0284956Y0037700D03*
M02*
