G75*
%MOIN*%
%OFA0B0*%
%FSLAX25Y25*%
%IPPOS*%
%LPD*%
%AMOC8*
5,1,8,0,0,1.08239X$1,22.5*
%
%ADD10R,0.02756X0.07677*%
%ADD11OC8,0.07087*%
%ADD12R,0.10000X0.20000*%
%ADD13R,0.03937X0.02756*%
%ADD14R,0.02165X0.04724*%
%ADD15R,0.02756X0.03937*%
%ADD16C,0.01600*%
%ADD17OC8,0.02375*%
%ADD18C,0.02400*%
%ADD19C,0.00800*%
%ADD20C,0.03200*%
%ADD21C,0.01000*%
D10*
X0102200Y0027712D03*
X0107200Y0027712D03*
X0112200Y0027712D03*
X0117200Y0027712D03*
X0122200Y0027712D03*
X0127200Y0027712D03*
X0132200Y0027712D03*
X0137200Y0027712D03*
X0142200Y0027712D03*
X0147200Y0027712D03*
X0152200Y0027712D03*
X0157200Y0027712D03*
X0162200Y0027712D03*
X0167200Y0027712D03*
X0172200Y0027712D03*
X0177200Y0027712D03*
X0182200Y0027712D03*
X0187200Y0027712D03*
X0192200Y0027712D03*
X0197200Y0027712D03*
X0202200Y0027712D03*
X0202200Y0066688D03*
X0197200Y0066688D03*
X0192200Y0066688D03*
X0187200Y0066688D03*
X0182200Y0066688D03*
X0177200Y0066688D03*
X0172200Y0066688D03*
X0167200Y0066688D03*
X0162200Y0066688D03*
X0157200Y0066688D03*
X0152200Y0066688D03*
X0147200Y0066688D03*
X0142200Y0066688D03*
X0137200Y0066688D03*
X0132200Y0066688D03*
X0127200Y0066688D03*
X0122200Y0066688D03*
X0117200Y0066688D03*
X0112200Y0066688D03*
X0107200Y0066688D03*
X0102200Y0066688D03*
D11*
X0102200Y0082200D03*
X0102200Y0092200D03*
X0102200Y0102200D03*
X0072200Y0102200D03*
X0072200Y0092200D03*
X0072200Y0082200D03*
X0042200Y0082200D03*
X0042200Y0072200D03*
X0042200Y0092200D03*
X0042200Y0102200D03*
X0012200Y0102200D03*
X0012200Y0092200D03*
X0012200Y0022200D03*
X0012200Y0012200D03*
X0072200Y0012200D03*
X0072200Y0022200D03*
X0222200Y0022200D03*
X0222200Y0012200D03*
X0252200Y0012200D03*
X0252200Y0022200D03*
X0252200Y0032200D03*
X0252200Y0042200D03*
X0252200Y0052200D03*
X0222200Y0052200D03*
X0222200Y0042200D03*
X0222200Y0032200D03*
X0282200Y0022200D03*
X0282200Y0012200D03*
X0282200Y0072200D03*
X0252200Y0072200D03*
X0252200Y0082200D03*
X0252200Y0092200D03*
X0252200Y0102200D03*
X0222200Y0102200D03*
X0222200Y0092200D03*
X0222200Y0072200D03*
X0282200Y0092200D03*
X0282200Y0102200D03*
X0312200Y0102200D03*
X0312200Y0092200D03*
X0312200Y0082200D03*
D12*
X0307200Y0037200D03*
D13*
X0307200Y0054444D03*
X0307200Y0059956D03*
X0202200Y0014956D03*
X0202200Y0009444D03*
X0127200Y0009444D03*
X0127200Y0014956D03*
X0102200Y0014956D03*
X0102200Y0009444D03*
D14*
X0278460Y0047082D03*
X0285940Y0047082D03*
X0285940Y0057318D03*
X0282200Y0057318D03*
X0278460Y0057318D03*
D15*
X0269956Y0047200D03*
X0264444Y0047200D03*
X0279444Y0037700D03*
X0284956Y0037700D03*
D16*
X0285940Y0038684D01*
X0285940Y0047082D01*
X0284956Y0037700D02*
X0287700Y0034956D01*
X0287700Y0017700D01*
X0282200Y0012200D01*
X0307200Y0037200D02*
X0307200Y0054444D01*
X0202200Y0066688D02*
X0202200Y0072200D01*
X0167200Y0066688D02*
X0167200Y0060700D01*
X0127200Y0060700D02*
X0127200Y0066688D01*
X0102200Y0066688D02*
X0102200Y0072200D01*
D17*
X0102200Y0072200D03*
X0097200Y0067200D03*
X0095700Y0057200D03*
X0127200Y0060700D03*
X0127200Y0072200D03*
X0167200Y0060700D03*
X0202200Y0072200D03*
X0207200Y0067200D03*
X0240700Y0062200D03*
X0249700Y0062200D03*
X0278200Y0052200D03*
X0286200Y0052200D03*
X0274700Y0042200D03*
X0259700Y0047200D03*
X0274700Y0032200D03*
X0317200Y0037200D03*
X0317200Y0052200D03*
X0317200Y0067200D03*
X0262200Y0092200D03*
X0238200Y0087200D03*
X0229700Y0097200D03*
X0212200Y0094700D03*
X0212200Y0099700D03*
X0212200Y0104700D03*
X0212200Y0047200D03*
X0149700Y0034700D03*
X0124700Y0034700D03*
X0064700Y0057200D03*
X0007200Y0062200D03*
X0007200Y0077200D03*
X0007200Y0097200D03*
X0007200Y0047200D03*
X0007200Y0032200D03*
X0007200Y0017200D03*
X0017200Y0007200D03*
X0032200Y0007200D03*
X0047200Y0007200D03*
X0062200Y0007200D03*
X0077200Y0007200D03*
X0097200Y0007200D03*
X0107200Y0007200D03*
X0122200Y0007200D03*
X0132200Y0007200D03*
X0147200Y0007200D03*
X0164700Y0007200D03*
X0182200Y0007200D03*
X0197200Y0007200D03*
X0212200Y0007200D03*
X0227200Y0007200D03*
X0242200Y0007200D03*
X0257200Y0007200D03*
X0272200Y0007200D03*
X0287200Y0007200D03*
X0302200Y0007200D03*
X0317200Y0007200D03*
X0317200Y0022200D03*
D18*
X0004400Y0004400D02*
X0004400Y0110000D01*
X0320000Y0110000D01*
X0320000Y0004400D01*
X0004400Y0004400D01*
X0004400Y0004599D02*
X0320000Y0004599D01*
X0320000Y0006997D02*
X0285119Y0006997D01*
X0284579Y0006457D02*
X0279821Y0006457D01*
X0276457Y0009821D01*
X0276457Y0014579D01*
X0279078Y0017200D01*
X0276457Y0019821D01*
X0276457Y0024579D01*
X0279821Y0027943D01*
X0284579Y0027943D01*
X0284700Y0027822D01*
X0284700Y0033531D01*
X0282667Y0033531D01*
X0282200Y0033998D01*
X0282173Y0033971D01*
X0281671Y0033681D01*
X0281112Y0033531D01*
X0279444Y0033531D01*
X0279444Y0037700D01*
X0279444Y0037700D01*
X0275866Y0037700D01*
X0275866Y0039958D01*
X0276016Y0040518D01*
X0276306Y0041019D01*
X0276715Y0041429D01*
X0277217Y0041719D01*
X0277777Y0041868D01*
X0279444Y0041868D01*
X0279444Y0037700D01*
X0275866Y0037700D01*
X0275866Y0035442D01*
X0276016Y0034882D01*
X0276306Y0034381D01*
X0276715Y0033971D01*
X0277217Y0033681D01*
X0277777Y0033531D01*
X0279444Y0033531D01*
X0279444Y0037700D01*
X0279444Y0037700D01*
X0279444Y0037700D01*
X0279444Y0041868D01*
X0281112Y0041868D01*
X0281671Y0041719D01*
X0282173Y0041429D01*
X0282200Y0041402D01*
X0282667Y0041868D01*
X0282940Y0041868D01*
X0282940Y0043526D01*
X0282657Y0043808D01*
X0282657Y0050355D01*
X0283946Y0051644D01*
X0287934Y0051644D01*
X0289223Y0050355D01*
X0289223Y0043808D01*
X0288940Y0043526D01*
X0288940Y0038088D01*
X0288902Y0037996D01*
X0290243Y0036655D01*
X0290700Y0035553D01*
X0290700Y0017103D01*
X0290243Y0016001D01*
X0287943Y0013701D01*
X0287943Y0009821D01*
X0284579Y0006457D01*
X0279281Y0006997D02*
X0255119Y0006997D01*
X0254579Y0006457D02*
X0249821Y0006457D01*
X0246457Y0009821D01*
X0246457Y0014579D01*
X0249078Y0017200D01*
X0246674Y0019604D01*
X0245727Y0019996D01*
X0236996Y0028727D01*
X0236600Y0029683D01*
X0236600Y0048123D01*
X0230123Y0054600D01*
X0227922Y0054600D01*
X0227943Y0054579D01*
X0227943Y0049821D01*
X0225322Y0047200D01*
X0227943Y0044579D01*
X0227943Y0039821D01*
X0225322Y0037200D01*
X0227943Y0034579D01*
X0227943Y0029821D01*
X0225322Y0027200D01*
X0227943Y0024579D01*
X0227943Y0019821D01*
X0225322Y0017200D01*
X0227943Y0014579D01*
X0227943Y0009821D01*
X0224579Y0006457D01*
X0219821Y0006457D01*
X0216457Y0009821D01*
X0216457Y0011156D01*
X0206357Y0011156D01*
X0206368Y0011112D01*
X0206368Y0009444D01*
X0202200Y0009444D01*
X0202200Y0005866D01*
X0204458Y0005866D01*
X0205018Y0006016D01*
X0205519Y0006306D01*
X0205929Y0006715D01*
X0206219Y0007217D01*
X0206368Y0007777D01*
X0206368Y0009444D01*
X0202200Y0009444D01*
X0202200Y0009444D01*
X0202200Y0005866D01*
X0199942Y0005866D01*
X0199382Y0006016D01*
X0198881Y0006306D01*
X0198471Y0006715D01*
X0198181Y0007217D01*
X0198031Y0007777D01*
X0198031Y0009444D01*
X0202200Y0009444D01*
X0202200Y0009444D01*
X0202200Y0009444D01*
X0198031Y0009444D01*
X0198031Y0011112D01*
X0198043Y0011156D01*
X0131357Y0011156D01*
X0131368Y0011112D01*
X0131368Y0009444D01*
X0127200Y0009444D01*
X0127200Y0005866D01*
X0129458Y0005866D01*
X0130018Y0006016D01*
X0130519Y0006306D01*
X0130929Y0006715D01*
X0131219Y0007217D01*
X0131368Y0007777D01*
X0131368Y0009444D01*
X0127200Y0009444D01*
X0127200Y0009444D01*
X0127200Y0005866D01*
X0124942Y0005866D01*
X0124382Y0006016D01*
X0123881Y0006306D01*
X0123471Y0006715D01*
X0123181Y0007217D01*
X0123031Y0007777D01*
X0123031Y0009444D01*
X0127200Y0009444D01*
X0127200Y0009444D01*
X0127200Y0009444D01*
X0123031Y0009444D01*
X0123031Y0011112D01*
X0123043Y0011156D01*
X0106357Y0011156D01*
X0106368Y0011112D01*
X0106368Y0009444D01*
X0102200Y0009444D01*
X0102200Y0005866D01*
X0104458Y0005866D01*
X0105018Y0006016D01*
X0105519Y0006306D01*
X0105929Y0006715D01*
X0106219Y0007217D01*
X0106368Y0007777D01*
X0106368Y0009444D01*
X0102200Y0009444D01*
X0102200Y0009444D01*
X0102200Y0005866D01*
X0099942Y0005866D01*
X0099382Y0006016D01*
X0098881Y0006306D01*
X0098471Y0006715D01*
X0098181Y0007217D01*
X0098031Y0007777D01*
X0098031Y0009444D01*
X0102200Y0009444D01*
X0102200Y0009444D01*
X0102200Y0009444D01*
X0098031Y0009444D01*
X0098031Y0011112D01*
X0098043Y0011156D01*
X0077943Y0011156D01*
X0077943Y0009821D01*
X0074579Y0006457D01*
X0069821Y0006457D01*
X0067878Y0008400D01*
X0016522Y0008400D01*
X0014579Y0006457D01*
X0009821Y0006457D01*
X0006457Y0009821D01*
X0006457Y0014579D01*
X0009078Y0017200D01*
X0006457Y0019821D01*
X0006457Y0024579D01*
X0009821Y0027943D01*
X0014579Y0027943D01*
X0017943Y0024579D01*
X0017943Y0019821D01*
X0015322Y0017200D01*
X0016522Y0016000D01*
X0067878Y0016000D01*
X0069078Y0017200D01*
X0066457Y0019821D01*
X0066457Y0024579D01*
X0069821Y0027943D01*
X0074579Y0027943D01*
X0077943Y0024579D01*
X0077943Y0019821D01*
X0076878Y0018756D01*
X0098800Y0018756D01*
X0098800Y0022784D01*
X0098622Y0022962D01*
X0098622Y0032462D01*
X0099911Y0033750D01*
X0102473Y0033750D01*
X0101623Y0034600D01*
X0087683Y0034600D01*
X0086727Y0034996D01*
X0067007Y0054716D01*
X0066103Y0053813D01*
X0063297Y0053813D01*
X0061313Y0055797D01*
X0061313Y0056910D01*
X0048623Y0069600D01*
X0047722Y0069600D01*
X0044579Y0066457D01*
X0039821Y0066457D01*
X0036457Y0069821D01*
X0036457Y0074579D01*
X0036478Y0074600D01*
X0026683Y0074600D01*
X0025727Y0074996D01*
X0024996Y0075727D01*
X0014266Y0086457D01*
X0009821Y0086457D01*
X0006457Y0089821D01*
X0006457Y0094579D01*
X0009078Y0097200D01*
X0006457Y0099821D01*
X0006457Y0104579D01*
X0009821Y0107943D01*
X0014579Y0107943D01*
X0017943Y0104579D01*
X0017943Y0100134D01*
X0028277Y0089800D01*
X0036478Y0089800D01*
X0036457Y0089821D01*
X0036457Y0094579D01*
X0039078Y0097200D01*
X0036457Y0099821D01*
X0036457Y0102200D01*
X0042200Y0102200D01*
X0042200Y0102200D01*
X0042200Y0107943D01*
X0039821Y0107943D01*
X0036457Y0104579D01*
X0036457Y0102200D01*
X0042200Y0102200D01*
X0047943Y0102200D01*
X0042200Y0102200D01*
X0042200Y0102200D01*
X0042200Y0102200D01*
X0042200Y0107943D01*
X0044579Y0107943D01*
X0047943Y0104579D01*
X0047943Y0102200D01*
X0047943Y0099821D01*
X0045322Y0097200D01*
X0047943Y0094579D01*
X0047943Y0090134D01*
X0069600Y0068477D01*
X0069600Y0076678D01*
X0066457Y0079821D01*
X0066457Y0084579D01*
X0069078Y0087200D01*
X0066457Y0089821D01*
X0066457Y0094579D01*
X0069078Y0097200D01*
X0066457Y0099821D01*
X0066457Y0104579D01*
X0069821Y0107943D01*
X0074579Y0107943D01*
X0077943Y0104579D01*
X0077943Y0100134D01*
X0081404Y0096673D01*
X0081800Y0095717D01*
X0081800Y0065277D01*
X0087600Y0059477D01*
X0087600Y0080717D01*
X0087996Y0081673D01*
X0096457Y0090134D01*
X0096457Y0094579D01*
X0099078Y0097200D01*
X0096457Y0099821D01*
X0096457Y0102200D01*
X0102200Y0102200D01*
X0102200Y0102200D01*
X0102200Y0107943D01*
X0099821Y0107943D01*
X0096457Y0104579D01*
X0096457Y0102200D01*
X0102200Y0102200D01*
X0107943Y0102200D01*
X0102200Y0102200D01*
X0102200Y0102200D01*
X0102200Y0102200D01*
X0102200Y0107943D01*
X0104579Y0107943D01*
X0107943Y0104579D01*
X0107943Y0102200D01*
X0107943Y0099821D01*
X0105322Y0097200D01*
X0107943Y0094579D01*
X0107943Y0089821D01*
X0105322Y0087200D01*
X0107943Y0084579D01*
X0107943Y0079821D01*
X0104579Y0076457D01*
X0100134Y0076457D01*
X0094800Y0071123D01*
X0094800Y0060587D01*
X0097103Y0060587D01*
X0097891Y0059800D01*
X0151623Y0059800D01*
X0152473Y0060650D01*
X0149911Y0060650D01*
X0149700Y0060860D01*
X0149489Y0060650D01*
X0144911Y0060650D01*
X0144700Y0060860D01*
X0144489Y0060650D01*
X0139911Y0060650D01*
X0139700Y0060860D01*
X0139489Y0060650D01*
X0134911Y0060650D01*
X0134700Y0060860D01*
X0134489Y0060650D01*
X0129911Y0060650D01*
X0129639Y0060922D01*
X0129427Y0060800D01*
X0128868Y0060650D01*
X0127200Y0060650D01*
X0127200Y0066688D01*
X0127200Y0066688D01*
X0127200Y0060650D01*
X0125532Y0060650D01*
X0124973Y0060800D01*
X0124761Y0060922D01*
X0124489Y0060650D01*
X0119911Y0060650D01*
X0119700Y0060860D01*
X0119489Y0060650D01*
X0114911Y0060650D01*
X0114700Y0060860D01*
X0114489Y0060650D01*
X0109911Y0060650D01*
X0109700Y0060860D01*
X0109489Y0060650D01*
X0104911Y0060650D01*
X0104639Y0060922D01*
X0104427Y0060800D01*
X0103868Y0060650D01*
X0102200Y0060650D01*
X0102200Y0066688D01*
X0102200Y0066688D01*
X0102200Y0060650D01*
X0100532Y0060650D01*
X0099973Y0060800D01*
X0099471Y0061089D01*
X0099062Y0061499D01*
X0098772Y0062000D01*
X0098622Y0062560D01*
X0098622Y0066688D01*
X0102200Y0066688D01*
X0102200Y0066688D01*
X0098622Y0066688D01*
X0098622Y0070816D01*
X0098772Y0071376D01*
X0099062Y0071878D01*
X0099471Y0072287D01*
X0099973Y0072577D01*
X0100532Y0072727D01*
X0102200Y0072727D01*
X0102200Y0066688D01*
X0102200Y0066688D01*
X0102200Y0072727D01*
X0103868Y0072727D01*
X0104427Y0072577D01*
X0104600Y0072477D01*
X0104600Y0072717D01*
X0104996Y0073673D01*
X0105727Y0074404D01*
X0140727Y0109404D01*
X0141683Y0109800D01*
X0277717Y0109800D01*
X0278673Y0109404D01*
X0279404Y0108673D01*
X0279404Y0108673D01*
X0280134Y0107943D01*
X0284579Y0107943D01*
X0287943Y0104579D01*
X0287943Y0099821D01*
X0287922Y0099800D01*
X0306478Y0099800D01*
X0306457Y0099821D01*
X0306457Y0102200D01*
X0312200Y0102200D01*
X0312200Y0102200D01*
X0312200Y0107943D01*
X0309821Y0107943D01*
X0306457Y0104579D01*
X0306457Y0102200D01*
X0312200Y0102200D01*
X0317943Y0102200D01*
X0312200Y0102200D01*
X0312200Y0102200D01*
X0312200Y0102200D01*
X0312200Y0107943D01*
X0314579Y0107943D01*
X0317943Y0104579D01*
X0317943Y0102200D01*
X0317943Y0099821D01*
X0315322Y0097200D01*
X0317943Y0094579D01*
X0317943Y0089821D01*
X0315322Y0087200D01*
X0317943Y0084579D01*
X0317943Y0079821D01*
X0314579Y0076457D01*
X0309821Y0076457D01*
X0306457Y0079821D01*
X0306457Y0084266D01*
X0306123Y0084600D01*
X0257922Y0084600D01*
X0257943Y0084579D01*
X0257943Y0079821D01*
X0255322Y0077200D01*
X0257943Y0074579D01*
X0257943Y0069821D01*
X0257922Y0069800D01*
X0261123Y0069800D01*
X0270727Y0079404D01*
X0271683Y0079800D01*
X0297717Y0079800D01*
X0298673Y0079404D01*
X0309404Y0068673D01*
X0309800Y0067717D01*
X0309800Y0063534D01*
X0310080Y0063534D01*
X0311368Y0062245D01*
X0311368Y0057667D01*
X0310902Y0057200D01*
X0311368Y0056733D01*
X0311368Y0052155D01*
X0310200Y0050986D01*
X0310200Y0049400D01*
X0313111Y0049400D01*
X0314400Y0048111D01*
X0314400Y0026289D01*
X0313111Y0025000D01*
X0301289Y0025000D01*
X0300000Y0026289D01*
X0300000Y0048111D01*
X0301289Y0049400D01*
X0304200Y0049400D01*
X0304200Y0050986D01*
X0303031Y0052155D01*
X0303031Y0056733D01*
X0303498Y0057200D01*
X0303031Y0057667D01*
X0303031Y0062245D01*
X0304320Y0063534D01*
X0304600Y0063534D01*
X0304600Y0066123D01*
X0296123Y0074600D01*
X0287922Y0074600D01*
X0287943Y0074579D01*
X0287943Y0070134D01*
X0288144Y0069933D01*
X0288540Y0068977D01*
X0288540Y0061274D01*
X0289223Y0060592D01*
X0289223Y0054045D01*
X0287934Y0052756D01*
X0280206Y0052756D01*
X0280127Y0052835D01*
X0279832Y0052756D01*
X0278460Y0052756D01*
X0278460Y0057318D01*
X0278460Y0057318D01*
X0278460Y0052756D01*
X0277088Y0052756D01*
X0276528Y0052906D01*
X0276026Y0053195D01*
X0275617Y0053605D01*
X0275327Y0054107D01*
X0275177Y0054666D01*
X0275177Y0057318D01*
X0278460Y0057318D01*
X0278460Y0057318D01*
X0278460Y0061880D01*
X0278843Y0061880D01*
X0278623Y0062100D01*
X0253277Y0062100D01*
X0253087Y0061910D01*
X0253087Y0060797D01*
X0251103Y0058813D01*
X0249800Y0058813D01*
X0249800Y0058277D01*
X0250134Y0057943D01*
X0254579Y0057943D01*
X0257943Y0054579D01*
X0257943Y0050234D01*
X0258297Y0050587D01*
X0261103Y0050587D01*
X0261238Y0050452D01*
X0262155Y0051368D01*
X0266733Y0051368D01*
X0267200Y0050902D01*
X0267667Y0051368D01*
X0272245Y0051368D01*
X0273534Y0050080D01*
X0273534Y0049900D01*
X0275177Y0049900D01*
X0275177Y0050355D01*
X0276466Y0051644D01*
X0280454Y0051644D01*
X0281743Y0050355D01*
X0281743Y0043808D01*
X0280454Y0042520D01*
X0276466Y0042520D01*
X0275177Y0043808D01*
X0275177Y0044500D01*
X0273534Y0044500D01*
X0273534Y0044320D01*
X0272245Y0043031D01*
X0267667Y0043031D01*
X0267200Y0043498D01*
X0266733Y0043031D01*
X0262155Y0043031D01*
X0261238Y0043948D01*
X0261103Y0043813D01*
X0258297Y0043813D01*
X0257943Y0044166D01*
X0257943Y0039821D01*
X0255322Y0037200D01*
X0257943Y0034579D01*
X0257943Y0029821D01*
X0257100Y0028977D01*
X0259673Y0026404D01*
X0260404Y0025673D01*
X0260800Y0024717D01*
X0260800Y0017683D01*
X0260404Y0016727D01*
X0259673Y0015996D01*
X0259673Y0015996D01*
X0257943Y0014266D01*
X0257943Y0009821D01*
X0254579Y0006457D01*
X0249281Y0006997D02*
X0225119Y0006997D01*
X0219281Y0006997D02*
X0206092Y0006997D01*
X0202200Y0006997D02*
X0202200Y0006997D01*
X0198308Y0006997D02*
X0131092Y0006997D01*
X0127200Y0006997D02*
X0127200Y0006997D01*
X0123308Y0006997D02*
X0106092Y0006997D01*
X0106368Y0009396D02*
X0123031Y0009396D01*
X0127200Y0009396D02*
X0127200Y0009396D01*
X0131368Y0009396D02*
X0198031Y0009396D01*
X0202200Y0009396D02*
X0202200Y0009396D01*
X0206368Y0009396D02*
X0216882Y0009396D01*
X0227518Y0009396D02*
X0246882Y0009396D01*
X0246457Y0011794D02*
X0227943Y0011794D01*
X0227943Y0014193D02*
X0246457Y0014193D01*
X0248469Y0016591D02*
X0225931Y0016591D01*
X0227112Y0018990D02*
X0247288Y0018990D01*
X0244335Y0021388D02*
X0227943Y0021388D01*
X0227943Y0023787D02*
X0241936Y0023787D01*
X0239538Y0026185D02*
X0226337Y0026185D01*
X0226706Y0028584D02*
X0237139Y0028584D01*
X0236600Y0030982D02*
X0227943Y0030982D01*
X0227943Y0033381D02*
X0236600Y0033381D01*
X0236600Y0035779D02*
X0226743Y0035779D01*
X0226300Y0038178D02*
X0236600Y0038178D01*
X0236600Y0040576D02*
X0227943Y0040576D01*
X0227943Y0042975D02*
X0236600Y0042975D01*
X0236600Y0045373D02*
X0227149Y0045373D01*
X0225894Y0047772D02*
X0236600Y0047772D01*
X0234553Y0050170D02*
X0227943Y0050170D01*
X0227943Y0052569D02*
X0232154Y0052569D01*
X0240110Y0054967D02*
X0240600Y0054967D01*
X0240600Y0054477D02*
X0240600Y0058813D01*
X0239297Y0058813D01*
X0237313Y0060797D01*
X0237313Y0061910D01*
X0229623Y0069600D01*
X0227722Y0069600D01*
X0224579Y0066457D01*
X0219821Y0066457D01*
X0216457Y0069821D01*
X0216457Y0074579D01*
X0216478Y0074600D01*
X0193277Y0074600D01*
X0191404Y0072727D01*
X0194489Y0072727D01*
X0194700Y0072516D01*
X0194911Y0072727D01*
X0199489Y0072727D01*
X0199761Y0072455D01*
X0199973Y0072577D01*
X0200532Y0072727D01*
X0202200Y0072727D01*
X0202200Y0066688D01*
X0202200Y0066688D01*
X0205778Y0066688D01*
X0205778Y0062560D01*
X0205628Y0062000D01*
X0205512Y0061800D01*
X0232717Y0061800D01*
X0233673Y0061404D01*
X0240600Y0054477D01*
X0240600Y0057366D02*
X0237711Y0057366D01*
X0238345Y0059764D02*
X0235313Y0059764D01*
X0237060Y0062163D02*
X0205672Y0062163D01*
X0205778Y0064561D02*
X0234662Y0064561D01*
X0232263Y0066960D02*
X0225082Y0066960D01*
X0219318Y0066960D02*
X0205778Y0066960D01*
X0205778Y0066688D02*
X0205778Y0070816D01*
X0205628Y0071376D01*
X0205338Y0071878D01*
X0204929Y0072287D01*
X0204427Y0072577D01*
X0203868Y0072727D01*
X0202200Y0072727D01*
X0202200Y0066688D01*
X0205778Y0066688D01*
X0202200Y0066688D02*
X0202200Y0066688D01*
X0202200Y0066960D02*
X0202200Y0066960D01*
X0202200Y0069358D02*
X0202200Y0069358D01*
X0205778Y0069358D02*
X0216919Y0069358D01*
X0216457Y0071757D02*
X0205408Y0071757D01*
X0202200Y0071757D02*
X0202200Y0071757D01*
X0192832Y0074155D02*
X0216457Y0074155D01*
X0227481Y0069358D02*
X0229865Y0069358D01*
X0252055Y0059764D02*
X0275177Y0059764D01*
X0275177Y0059970D02*
X0275177Y0057318D01*
X0278460Y0057318D01*
X0278460Y0057318D01*
X0278460Y0061880D01*
X0277088Y0061880D01*
X0276528Y0061730D01*
X0276026Y0061441D01*
X0275617Y0061031D01*
X0275327Y0060529D01*
X0275177Y0059970D01*
X0278460Y0059764D02*
X0278460Y0059764D01*
X0278460Y0057366D02*
X0278460Y0057366D01*
X0275177Y0057366D02*
X0255156Y0057366D01*
X0257555Y0054967D02*
X0275177Y0054967D01*
X0278460Y0054967D02*
X0278460Y0054967D01*
X0281743Y0050170D02*
X0282657Y0050170D01*
X0282657Y0047772D02*
X0281743Y0047772D01*
X0281743Y0045373D02*
X0282657Y0045373D01*
X0282940Y0042975D02*
X0280909Y0042975D01*
X0279444Y0040576D02*
X0279444Y0040576D01*
X0279444Y0038178D02*
X0279444Y0038178D01*
X0275866Y0038178D02*
X0256300Y0038178D01*
X0257943Y0040576D02*
X0276050Y0040576D01*
X0276011Y0042975D02*
X0257943Y0042975D01*
X0256743Y0035779D02*
X0275866Y0035779D01*
X0279444Y0035779D02*
X0279444Y0035779D01*
X0284700Y0033381D02*
X0257943Y0033381D01*
X0257943Y0030982D02*
X0284700Y0030982D01*
X0284700Y0028584D02*
X0257493Y0028584D01*
X0259892Y0026185D02*
X0278063Y0026185D01*
X0276457Y0023787D02*
X0260800Y0023787D01*
X0260800Y0021388D02*
X0276457Y0021388D01*
X0277288Y0018990D02*
X0260800Y0018990D01*
X0260268Y0016591D02*
X0278469Y0016591D01*
X0276457Y0014193D02*
X0257943Y0014193D01*
X0257943Y0011794D02*
X0276457Y0011794D01*
X0276882Y0009396D02*
X0257518Y0009396D01*
X0287518Y0009396D02*
X0320000Y0009396D01*
X0320000Y0011794D02*
X0287943Y0011794D01*
X0288435Y0014193D02*
X0320000Y0014193D01*
X0320000Y0016591D02*
X0290488Y0016591D01*
X0290700Y0018990D02*
X0320000Y0018990D01*
X0320000Y0021388D02*
X0290700Y0021388D01*
X0290700Y0023787D02*
X0320000Y0023787D01*
X0320000Y0026185D02*
X0314296Y0026185D01*
X0314400Y0028584D02*
X0320000Y0028584D01*
X0320000Y0030982D02*
X0314400Y0030982D01*
X0314400Y0033381D02*
X0320000Y0033381D01*
X0320000Y0035779D02*
X0314400Y0035779D01*
X0314400Y0038178D02*
X0320000Y0038178D01*
X0320000Y0040576D02*
X0314400Y0040576D01*
X0314400Y0042975D02*
X0320000Y0042975D01*
X0320000Y0045373D02*
X0314400Y0045373D01*
X0314400Y0047772D02*
X0320000Y0047772D01*
X0320000Y0050170D02*
X0310200Y0050170D01*
X0311368Y0052569D02*
X0320000Y0052569D01*
X0320000Y0054967D02*
X0311368Y0054967D01*
X0311068Y0057366D02*
X0320000Y0057366D01*
X0320000Y0059764D02*
X0311368Y0059764D01*
X0311368Y0062163D02*
X0320000Y0062163D01*
X0320000Y0064561D02*
X0309800Y0064561D01*
X0309800Y0066960D02*
X0320000Y0066960D01*
X0320000Y0069358D02*
X0308719Y0069358D01*
X0306320Y0071757D02*
X0320000Y0071757D01*
X0320000Y0074155D02*
X0303922Y0074155D01*
X0301523Y0076554D02*
X0309724Y0076554D01*
X0307325Y0078952D02*
X0299125Y0078952D01*
X0306457Y0081351D02*
X0257943Y0081351D01*
X0257943Y0083749D02*
X0306457Y0083749D01*
X0316374Y0086148D02*
X0320000Y0086148D01*
X0320000Y0088546D02*
X0316669Y0088546D01*
X0317943Y0090945D02*
X0320000Y0090945D01*
X0320000Y0093343D02*
X0317943Y0093343D01*
X0316780Y0095742D02*
X0320000Y0095742D01*
X0320000Y0098140D02*
X0316263Y0098140D01*
X0317943Y0100539D02*
X0320000Y0100539D01*
X0320000Y0102937D02*
X0317943Y0102937D01*
X0317186Y0105336D02*
X0320000Y0105336D01*
X0320000Y0107734D02*
X0314788Y0107734D01*
X0312200Y0107734D02*
X0312200Y0107734D01*
X0312200Y0105336D02*
X0312200Y0105336D01*
X0309612Y0107734D02*
X0284788Y0107734D01*
X0287186Y0105336D02*
X0307214Y0105336D01*
X0306457Y0102937D02*
X0287943Y0102937D01*
X0287943Y0100539D02*
X0306457Y0100539D01*
X0312200Y0102937D02*
X0312200Y0102937D01*
X0276457Y0102937D02*
X0257943Y0102937D01*
X0257943Y0102200D02*
X0257943Y0104579D01*
X0257922Y0104600D01*
X0276123Y0104600D01*
X0276457Y0104266D01*
X0276457Y0099821D01*
X0276478Y0099800D01*
X0257922Y0099800D01*
X0257943Y0099821D01*
X0257943Y0102200D01*
X0252200Y0102200D01*
X0252200Y0102200D01*
X0252200Y0102200D01*
X0246457Y0102200D01*
X0246457Y0099821D01*
X0246478Y0099800D01*
X0231891Y0099800D01*
X0231103Y0100587D01*
X0228297Y0100587D01*
X0227943Y0100234D01*
X0227943Y0104579D01*
X0227922Y0104600D01*
X0246478Y0104600D01*
X0246457Y0104579D01*
X0246457Y0102200D01*
X0252200Y0102200D01*
X0257943Y0102200D01*
X0257943Y0100539D02*
X0276457Y0100539D01*
X0246457Y0100539D02*
X0231152Y0100539D01*
X0228248Y0100539D02*
X0227943Y0100539D01*
X0227943Y0102937D02*
X0246457Y0102937D01*
X0257075Y0078952D02*
X0270275Y0078952D01*
X0267877Y0076554D02*
X0255968Y0076554D01*
X0257943Y0074155D02*
X0265478Y0074155D01*
X0263080Y0071757D02*
X0257943Y0071757D01*
X0287943Y0071757D02*
X0298966Y0071757D01*
X0296568Y0074155D02*
X0287943Y0074155D01*
X0288382Y0069358D02*
X0301365Y0069358D01*
X0303763Y0066960D02*
X0288540Y0066960D01*
X0288540Y0064561D02*
X0304600Y0064561D01*
X0303031Y0062163D02*
X0288540Y0062163D01*
X0289223Y0059764D02*
X0303031Y0059764D01*
X0303332Y0057366D02*
X0289223Y0057366D01*
X0289223Y0054967D02*
X0303031Y0054967D01*
X0303031Y0052569D02*
X0257943Y0052569D01*
X0273443Y0050170D02*
X0275177Y0050170D01*
X0289223Y0050170D02*
X0304200Y0050170D01*
X0300000Y0047772D02*
X0289223Y0047772D01*
X0289223Y0045373D02*
X0300000Y0045373D01*
X0300000Y0042975D02*
X0288940Y0042975D01*
X0288940Y0040576D02*
X0300000Y0040576D01*
X0300000Y0038178D02*
X0288940Y0038178D01*
X0290606Y0035779D02*
X0300000Y0035779D01*
X0300000Y0033381D02*
X0290700Y0033381D01*
X0290700Y0030982D02*
X0300000Y0030982D01*
X0300000Y0028584D02*
X0290700Y0028584D01*
X0290700Y0026185D02*
X0300104Y0026185D01*
X0216457Y0050134D02*
X0215257Y0048934D01*
X0213603Y0050587D01*
X0210797Y0050587D01*
X0208813Y0048603D01*
X0208813Y0047490D01*
X0206123Y0044800D01*
X0176183Y0044800D01*
X0175227Y0044404D01*
X0174496Y0043673D01*
X0164996Y0034173D01*
X0164757Y0033597D01*
X0164700Y0033540D01*
X0164643Y0033597D01*
X0164404Y0034173D01*
X0162404Y0036173D01*
X0161673Y0036904D01*
X0160717Y0037300D01*
X0151891Y0037300D01*
X0151103Y0038087D01*
X0148297Y0038087D01*
X0146893Y0036684D01*
X0128977Y0054600D01*
X0153217Y0054600D01*
X0154173Y0054996D01*
X0159404Y0060227D01*
X0159643Y0060803D01*
X0159700Y0060860D01*
X0159911Y0060650D01*
X0164489Y0060650D01*
X0164761Y0060922D01*
X0164973Y0060800D01*
X0165532Y0060650D01*
X0167200Y0060650D01*
X0168868Y0060650D01*
X0169427Y0060800D01*
X0169639Y0060922D01*
X0169911Y0060650D01*
X0174489Y0060650D01*
X0174700Y0060860D01*
X0174911Y0060650D01*
X0179489Y0060650D01*
X0179700Y0060860D01*
X0179911Y0060650D01*
X0184489Y0060650D01*
X0184700Y0060860D01*
X0184911Y0060650D01*
X0189489Y0060650D01*
X0189700Y0060860D01*
X0189757Y0060803D01*
X0189996Y0060227D01*
X0194496Y0055727D01*
X0195227Y0054996D01*
X0196183Y0054600D01*
X0216478Y0054600D01*
X0216457Y0054579D01*
X0216457Y0050134D01*
X0216457Y0050170D02*
X0214020Y0050170D01*
X0216457Y0052569D02*
X0131008Y0052569D01*
X0133407Y0050170D02*
X0210380Y0050170D01*
X0208813Y0047772D02*
X0135805Y0047772D01*
X0138204Y0045373D02*
X0206696Y0045373D01*
X0195296Y0054967D02*
X0154104Y0054967D01*
X0156543Y0057366D02*
X0192857Y0057366D01*
X0194496Y0055727D02*
X0194496Y0055727D01*
X0190459Y0059764D02*
X0158941Y0059764D01*
X0167200Y0060650D02*
X0167200Y0066688D01*
X0167200Y0060650D01*
X0167200Y0062163D02*
X0167200Y0062163D01*
X0167200Y0064561D02*
X0167200Y0064561D01*
X0167200Y0066688D02*
X0167200Y0066688D01*
X0167200Y0072727D01*
X0166404Y0072727D01*
X0176277Y0082600D01*
X0178923Y0082600D01*
X0169996Y0073673D01*
X0169600Y0072717D01*
X0169600Y0072477D01*
X0169427Y0072577D01*
X0168868Y0072727D01*
X0167200Y0072727D01*
X0167200Y0066688D01*
X0167200Y0066688D01*
X0167200Y0066960D02*
X0167200Y0066960D01*
X0167200Y0069358D02*
X0167200Y0069358D01*
X0167200Y0071757D02*
X0167200Y0071757D01*
X0167832Y0074155D02*
X0170478Y0074155D01*
X0170231Y0076554D02*
X0172877Y0076554D01*
X0172629Y0078952D02*
X0175275Y0078952D01*
X0175028Y0081351D02*
X0177674Y0081351D01*
X0149666Y0093343D02*
X0147020Y0093343D01*
X0147268Y0090945D02*
X0144622Y0090945D01*
X0144869Y0088546D02*
X0142223Y0088546D01*
X0142471Y0086148D02*
X0139825Y0086148D01*
X0140072Y0083749D02*
X0137426Y0083749D01*
X0137674Y0081351D02*
X0135028Y0081351D01*
X0135275Y0078952D02*
X0132629Y0078952D01*
X0132877Y0076554D02*
X0130231Y0076554D01*
X0130478Y0074155D02*
X0127832Y0074155D01*
X0127200Y0072727D02*
X0127200Y0066688D01*
X0127200Y0072727D01*
X0126404Y0072727D01*
X0150777Y0097100D01*
X0153423Y0097100D01*
X0129996Y0073673D01*
X0129600Y0072717D01*
X0129600Y0072477D01*
X0129427Y0072577D01*
X0128868Y0072727D01*
X0127200Y0072727D01*
X0127200Y0071757D02*
X0127200Y0071757D01*
X0127200Y0069358D02*
X0127200Y0069358D01*
X0127200Y0066960D02*
X0127200Y0066960D01*
X0127200Y0066688D02*
X0127200Y0066688D01*
X0127200Y0064561D02*
X0127200Y0064561D01*
X0127200Y0062163D02*
X0127200Y0062163D01*
X0102200Y0062163D02*
X0102200Y0062163D01*
X0098728Y0062163D02*
X0094800Y0062163D01*
X0094800Y0064561D02*
X0098622Y0064561D01*
X0098622Y0066960D02*
X0094800Y0066960D01*
X0094800Y0069358D02*
X0098622Y0069358D01*
X0102200Y0069358D02*
X0102200Y0069358D01*
X0102200Y0066960D02*
X0102200Y0066960D01*
X0102200Y0064561D02*
X0102200Y0064561D01*
X0087600Y0064561D02*
X0082516Y0064561D01*
X0081800Y0066960D02*
X0087600Y0066960D01*
X0087600Y0069358D02*
X0081800Y0069358D01*
X0081800Y0071757D02*
X0087600Y0071757D01*
X0087600Y0074155D02*
X0081800Y0074155D01*
X0081800Y0076554D02*
X0087600Y0076554D01*
X0087600Y0078952D02*
X0081800Y0078952D01*
X0081800Y0081351D02*
X0087862Y0081351D01*
X0090072Y0083749D02*
X0081800Y0083749D01*
X0081800Y0086148D02*
X0092471Y0086148D01*
X0094869Y0088546D02*
X0081800Y0088546D01*
X0081800Y0090945D02*
X0096457Y0090945D01*
X0096457Y0093343D02*
X0081800Y0093343D01*
X0081790Y0095742D02*
X0097620Y0095742D01*
X0098137Y0098140D02*
X0079936Y0098140D01*
X0077943Y0100539D02*
X0096457Y0100539D01*
X0096457Y0102937D02*
X0077943Y0102937D01*
X0077186Y0105336D02*
X0097214Y0105336D01*
X0099612Y0107734D02*
X0074788Y0107734D01*
X0069612Y0107734D02*
X0044788Y0107734D01*
X0042200Y0107734D02*
X0042200Y0107734D01*
X0042200Y0105336D02*
X0042200Y0105336D01*
X0039612Y0107734D02*
X0014788Y0107734D01*
X0017186Y0105336D02*
X0037214Y0105336D01*
X0036457Y0102937D02*
X0017943Y0102937D01*
X0017943Y0100539D02*
X0036457Y0100539D01*
X0038137Y0098140D02*
X0019936Y0098140D01*
X0022335Y0095742D02*
X0037620Y0095742D01*
X0036457Y0093343D02*
X0024734Y0093343D01*
X0027132Y0090945D02*
X0036457Y0090945D01*
X0046780Y0095742D02*
X0067620Y0095742D01*
X0068137Y0098140D02*
X0046263Y0098140D01*
X0047943Y0100539D02*
X0066457Y0100539D01*
X0066457Y0102937D02*
X0047943Y0102937D01*
X0047186Y0105336D02*
X0067214Y0105336D01*
X0042200Y0102937D02*
X0042200Y0102937D01*
X0047943Y0093343D02*
X0066457Y0093343D01*
X0066457Y0090945D02*
X0047943Y0090945D01*
X0049531Y0088546D02*
X0067731Y0088546D01*
X0068026Y0086148D02*
X0051929Y0086148D01*
X0054328Y0083749D02*
X0066457Y0083749D01*
X0066457Y0081351D02*
X0056726Y0081351D01*
X0059125Y0078952D02*
X0067325Y0078952D01*
X0069600Y0076554D02*
X0061523Y0076554D01*
X0063922Y0074155D02*
X0069600Y0074155D01*
X0069600Y0071757D02*
X0066320Y0071757D01*
X0068719Y0069358D02*
X0069600Y0069358D01*
X0056060Y0062163D02*
X0004400Y0062163D01*
X0004400Y0064561D02*
X0053662Y0064561D01*
X0051263Y0066960D02*
X0045082Y0066960D01*
X0047481Y0069358D02*
X0048865Y0069358D01*
X0039318Y0066960D02*
X0004400Y0066960D01*
X0004400Y0069358D02*
X0036919Y0069358D01*
X0036457Y0071757D02*
X0004400Y0071757D01*
X0004400Y0074155D02*
X0036457Y0074155D01*
X0024169Y0076554D02*
X0004400Y0076554D01*
X0004400Y0078952D02*
X0021771Y0078952D01*
X0019372Y0081351D02*
X0004400Y0081351D01*
X0004400Y0083749D02*
X0016974Y0083749D01*
X0014575Y0086148D02*
X0004400Y0086148D01*
X0004400Y0088546D02*
X0007731Y0088546D01*
X0006457Y0090945D02*
X0004400Y0090945D01*
X0004400Y0093343D02*
X0006457Y0093343D01*
X0007620Y0095742D02*
X0004400Y0095742D01*
X0004400Y0098140D02*
X0008137Y0098140D01*
X0006457Y0100539D02*
X0004400Y0100539D01*
X0004400Y0102937D02*
X0006457Y0102937D01*
X0007214Y0105336D02*
X0004400Y0105336D01*
X0004400Y0107734D02*
X0009612Y0107734D01*
X0097832Y0074155D02*
X0105478Y0074155D01*
X0104676Y0076554D02*
X0107877Y0076554D01*
X0107075Y0078952D02*
X0110275Y0078952D01*
X0107943Y0081351D02*
X0112674Y0081351D01*
X0115072Y0083749D02*
X0107943Y0083749D01*
X0106374Y0086148D02*
X0117471Y0086148D01*
X0119869Y0088546D02*
X0106669Y0088546D01*
X0107943Y0090945D02*
X0122268Y0090945D01*
X0124666Y0093343D02*
X0107943Y0093343D01*
X0106780Y0095742D02*
X0127065Y0095742D01*
X0129464Y0098140D02*
X0106263Y0098140D01*
X0107943Y0100539D02*
X0131862Y0100539D01*
X0134261Y0102937D02*
X0107943Y0102937D01*
X0107186Y0105336D02*
X0136659Y0105336D01*
X0139058Y0107734D02*
X0104788Y0107734D01*
X0102200Y0107734D02*
X0102200Y0107734D01*
X0102200Y0105336D02*
X0102200Y0105336D01*
X0102200Y0102937D02*
X0102200Y0102937D01*
X0149419Y0095742D02*
X0152065Y0095742D01*
X0102200Y0071757D02*
X0102200Y0071757D01*
X0098992Y0071757D02*
X0095434Y0071757D01*
X0087600Y0062163D02*
X0084914Y0062163D01*
X0087313Y0059764D02*
X0087600Y0059764D01*
X0069154Y0052569D02*
X0004400Y0052569D01*
X0004400Y0050170D02*
X0071553Y0050170D01*
X0073951Y0047772D02*
X0004400Y0047772D01*
X0004400Y0045373D02*
X0076350Y0045373D01*
X0078748Y0042975D02*
X0004400Y0042975D01*
X0004400Y0040576D02*
X0081147Y0040576D01*
X0083545Y0038178D02*
X0004400Y0038178D01*
X0004400Y0035779D02*
X0085944Y0035779D01*
X0098622Y0030982D02*
X0004400Y0030982D01*
X0004400Y0028584D02*
X0098622Y0028584D01*
X0102200Y0027712D02*
X0102200Y0014956D01*
X0098800Y0018990D02*
X0077112Y0018990D01*
X0077943Y0021388D02*
X0098800Y0021388D01*
X0098622Y0023787D02*
X0077943Y0023787D01*
X0076337Y0026185D02*
X0098622Y0026185D01*
X0099541Y0033381D02*
X0004400Y0033381D01*
X0004400Y0026185D02*
X0008063Y0026185D01*
X0006457Y0023787D02*
X0004400Y0023787D01*
X0004400Y0021388D02*
X0006457Y0021388D01*
X0007288Y0018990D02*
X0004400Y0018990D01*
X0004400Y0016591D02*
X0008469Y0016591D01*
X0006457Y0014193D02*
X0004400Y0014193D01*
X0004400Y0011794D02*
X0006457Y0011794D01*
X0006882Y0009396D02*
X0004400Y0009396D01*
X0004400Y0006997D02*
X0009281Y0006997D01*
X0015119Y0006997D02*
X0069281Y0006997D01*
X0075119Y0006997D02*
X0098308Y0006997D01*
X0102200Y0006997D02*
X0102200Y0006997D01*
X0102200Y0009396D02*
X0102200Y0009396D01*
X0098031Y0009396D02*
X0077518Y0009396D01*
X0068469Y0016591D02*
X0015931Y0016591D01*
X0017112Y0018990D02*
X0067288Y0018990D01*
X0066457Y0021388D02*
X0017943Y0021388D01*
X0017943Y0023787D02*
X0066457Y0023787D01*
X0068063Y0026185D02*
X0016337Y0026185D01*
X0004400Y0054967D02*
X0062142Y0054967D01*
X0060857Y0057366D02*
X0004400Y0057366D01*
X0004400Y0059764D02*
X0058459Y0059764D01*
X0127200Y0027712D02*
X0127200Y0014956D01*
X0162798Y0035779D02*
X0166602Y0035779D01*
X0169001Y0038178D02*
X0145399Y0038178D01*
X0143001Y0040576D02*
X0171399Y0040576D01*
X0173798Y0042975D02*
X0140602Y0042975D01*
X0202200Y0027712D02*
X0202200Y0014956D01*
X0314676Y0076554D02*
X0320000Y0076554D01*
X0320000Y0078952D02*
X0317075Y0078952D01*
X0317943Y0081351D02*
X0320000Y0081351D01*
X0320000Y0083749D02*
X0317943Y0083749D01*
D19*
X0312200Y0082200D02*
X0307200Y0087200D01*
X0238200Y0087200D01*
X0234700Y0087200D02*
X0162200Y0087200D01*
X0147200Y0072200D01*
X0147200Y0066688D01*
X0142200Y0066688D02*
X0142200Y0072200D01*
X0162200Y0092200D01*
X0222200Y0092200D01*
X0225700Y0097200D02*
X0230700Y0092200D01*
X0252200Y0092200D01*
X0262200Y0092200D02*
X0282200Y0092200D01*
X0282200Y0102200D02*
X0277200Y0107200D01*
X0142200Y0107200D01*
X0107200Y0072200D01*
X0107200Y0066688D01*
X0112200Y0066688D02*
X0112200Y0072200D01*
X0144700Y0104700D01*
X0212200Y0104700D01*
X0222200Y0102200D02*
X0147200Y0102200D01*
X0117200Y0072200D01*
X0117200Y0066688D01*
X0122200Y0066688D02*
X0122200Y0072200D01*
X0149700Y0099700D01*
X0212200Y0099700D01*
X0212200Y0094700D02*
X0159700Y0094700D01*
X0137200Y0072200D01*
X0137200Y0066688D01*
X0132200Y0066688D02*
X0132200Y0072200D01*
X0157200Y0097200D01*
X0225700Y0097200D01*
X0229700Y0097200D02*
X0307200Y0097200D01*
X0312200Y0092200D01*
X0297200Y0077200D02*
X0272200Y0077200D01*
X0262200Y0067200D01*
X0248700Y0067200D01*
X0232700Y0083200D01*
X0183200Y0083200D01*
X0172200Y0072200D01*
X0172200Y0066688D01*
X0177200Y0066688D02*
X0177200Y0072200D01*
X0186200Y0081200D01*
X0231700Y0081200D01*
X0247200Y0065700D01*
X0247200Y0057200D01*
X0252200Y0052200D01*
X0245200Y0049200D02*
X0252200Y0042200D01*
X0243200Y0041200D02*
X0252200Y0032200D01*
X0247200Y0027200D02*
X0241200Y0033200D01*
X0241200Y0050200D01*
X0232200Y0059200D01*
X0199700Y0059200D01*
X0197200Y0061700D01*
X0197200Y0066688D01*
X0192200Y0066688D02*
X0192200Y0061700D01*
X0196700Y0057200D01*
X0231200Y0057200D01*
X0239200Y0049200D01*
X0239200Y0030200D01*
X0247200Y0022200D01*
X0252200Y0022200D01*
X0255200Y0027200D02*
X0258200Y0024200D01*
X0258200Y0018200D01*
X0252200Y0012200D01*
X0222200Y0022200D02*
X0210200Y0034200D01*
X0198700Y0034200D01*
X0197200Y0032700D01*
X0197200Y0027712D01*
X0192200Y0027712D02*
X0192200Y0032700D01*
X0195700Y0036200D01*
X0218200Y0036200D01*
X0222200Y0032200D01*
X0218200Y0038200D02*
X0222200Y0042200D01*
X0218200Y0038200D02*
X0192700Y0038200D01*
X0187200Y0032700D01*
X0187200Y0027712D01*
X0182200Y0027712D02*
X0182200Y0032700D01*
X0189700Y0040200D01*
X0210200Y0040200D01*
X0222200Y0052200D01*
X0212200Y0047200D02*
X0207200Y0042200D01*
X0176700Y0042200D01*
X0167200Y0032700D01*
X0167200Y0027712D01*
X0162200Y0027712D02*
X0162200Y0032700D01*
X0160200Y0034700D01*
X0149700Y0034700D01*
X0147200Y0032700D02*
X0126700Y0053200D01*
X0096200Y0053200D01*
X0092200Y0057200D01*
X0092200Y0072200D01*
X0102200Y0082200D01*
X0102200Y0092200D02*
X0090200Y0080200D01*
X0090200Y0056200D01*
X0095200Y0051200D01*
X0123700Y0051200D01*
X0142200Y0032700D01*
X0142200Y0027712D01*
X0137200Y0027712D02*
X0137200Y0032700D01*
X0120700Y0049200D01*
X0094200Y0049200D01*
X0079200Y0064200D01*
X0079200Y0095200D01*
X0072200Y0102200D01*
X0072200Y0092200D02*
X0077200Y0087200D01*
X0077200Y0063200D01*
X0093200Y0047200D01*
X0117700Y0047200D01*
X0132200Y0032700D01*
X0132200Y0027712D01*
X0122200Y0027712D02*
X0122200Y0032700D01*
X0111700Y0043200D01*
X0091200Y0043200D01*
X0042200Y0092200D01*
X0044200Y0087200D02*
X0090200Y0041200D01*
X0108700Y0041200D01*
X0117200Y0032700D01*
X0117200Y0027712D01*
X0112200Y0027712D02*
X0112200Y0032700D01*
X0105700Y0039200D01*
X0089200Y0039200D01*
X0046200Y0082200D01*
X0042200Y0082200D01*
X0044200Y0087200D02*
X0027200Y0087200D01*
X0012200Y0102200D01*
X0012200Y0092200D02*
X0027200Y0077200D01*
X0048200Y0077200D01*
X0088200Y0037200D01*
X0102700Y0037200D01*
X0107200Y0032700D01*
X0107200Y0027712D01*
X0114200Y0045200D02*
X0124700Y0034700D01*
X0147200Y0032700D02*
X0147200Y0027712D01*
X0114200Y0045200D02*
X0092200Y0045200D01*
X0072200Y0065200D01*
X0072200Y0082200D01*
X0049700Y0072200D02*
X0064700Y0057200D01*
X0095700Y0057200D02*
X0152700Y0057200D01*
X0157200Y0061700D01*
X0157200Y0066688D01*
X0162200Y0066688D02*
X0162200Y0072200D01*
X0175200Y0085200D01*
X0233700Y0085200D01*
X0246700Y0072200D01*
X0252200Y0072200D01*
X0252200Y0064700D02*
X0249700Y0062200D01*
X0252200Y0064700D02*
X0279700Y0064700D01*
X0282200Y0062200D01*
X0282200Y0057318D01*
X0285940Y0057318D02*
X0285940Y0068460D01*
X0282200Y0072200D01*
X0297200Y0077200D02*
X0307200Y0067200D01*
X0307200Y0059956D01*
X0252200Y0082200D02*
X0239700Y0082200D01*
X0234700Y0087200D01*
X0230700Y0079200D02*
X0245200Y0064700D01*
X0245200Y0049200D01*
X0243200Y0041200D02*
X0243200Y0063700D01*
X0229700Y0077200D01*
X0192200Y0077200D01*
X0187200Y0072200D01*
X0187200Y0066688D01*
X0182200Y0066688D02*
X0182200Y0072200D01*
X0189200Y0079200D01*
X0230700Y0079200D01*
X0230700Y0072200D02*
X0222200Y0072200D01*
X0230700Y0072200D02*
X0240700Y0062200D01*
X0247200Y0027200D02*
X0255200Y0027200D01*
X0049700Y0072200D02*
X0042200Y0072200D01*
D20*
X0074956Y0014956D02*
X0102200Y0014956D01*
X0127200Y0014956D01*
X0202200Y0014956D01*
X0219444Y0014956D01*
X0222200Y0012200D01*
X0074956Y0014956D02*
X0072200Y0012200D01*
X0012200Y0012200D01*
D21*
X0259700Y0047200D02*
X0264444Y0047200D01*
X0269956Y0047200D02*
X0278460Y0047200D01*
X0278460Y0047082D01*
M02*
